<svg xmlns="http://www.w3.org/2000/svg" viewBox="0 0 460 240">
  <path d="M120 18 L153 86 L228 97 L174 150 L187 224 L120 188
    L53 224 L66 150 L12 97 L87 86 Z"/>
  <path d="M345 218 C330 202 250 153 250 96 C250 62 276 40 307 40
    C325 40 339 49 345 62 C351 49 365 40 383 40 C414 40 440 62 440 96
    C440 153 360 202 345 218 Z"/>
  <path d="M28 30 C72 2 166 2 212 30" fill="none" stroke="black"
    stroke-width="4" stroke-linecap="round"/>
  <ellipse cx="345" cy="132" rx="72" ry="82" fill="none" stroke="black"
    stroke-width="3"/>
</svg>
